<svg id="图层_1" data-name="图层 1" xmlns="http://www.w3.org/2000/svg" viewBox="0 0 1301 231"><defs><style>.cls-1{fill:#fff;}</style></defs><polygon class="cls-1" points="0 0 106.3 207.5 107.9 210.2 109.6 213 111.7 215.7 112.8 216.8 114.5 218.4 117.2 220.6 121.1 223.4 125.4 226.1 128.7 227.8 133.1 229.4 137.5 230.5 140.8 231 141.9 231 184.8 231 184.8 216.7 80.2 0 0 0"/><polygon class="cls-1" points="111.6 0 136.4 51.4 189.7 51.4 189.7 231 251.9 231 251.9 51.4 305.2 51.4 330 0 111.6 0"/><path class="cls-1" d="M432.4,195.9,381,49.1h45.1l17.8,56.6A492.12,492.12,0,0,1,458.1,158h.4c4.1-18.3,9.2-35.5,14.2-51.2l18.5-57.7h43.3L481.6,195.9Z"/><path class="cls-1" d="M569.4,160.2,560,195.9H516.7L563.1,49.1h56.2l49.4,146.8H622.9L612,160.2Zm36.3-30-7.8-25.9c-2.6-8.3-5.7-18.9-8.3-27.4h-.4c-2.4,8.5-4.6,19.2-7,27.6l-7,25.7Z"/><path class="cls-1" d="M685.1,49.1h41.2V161.5h63.3v34.4H685.1Z"/><path class="cls-1" d="M819.9,82.7H778.5V49.1H903.2V82.6H861V195.8H819.9Z"/><path class="cls-1" d="M1021.9,137.7H962.5v25h66.4v33.1H921.5V49.1h104.1V82.2H962.5v22.4h59.4Z"/><path class="cls-1" d="M1170.8,191.5c-6.1,3-21.8,7-41.9,7-59.6,0-86.2-34.2-86.2-73.6,0-50.9,40.2-78.4,88.4-78.4,19,0,34.9,3.5,42.1,7.4l-8.5,31.8a84,84,0,0,0-32.1-6.1c-24.7,0-46.5,13.3-46.5,42.5,0,25.3,17.2,42.9,47.6,42.9,11.3,0,23.8-2.2,30.8-5Z"/><path class="cls-1" d="M1193.7,154.9c10,4.8,26,10.2,43,10.2,14,0,21.1-4.4,21.1-11.8,0-6.3-6.9-10.5-25.1-15.5-25.5-7-46.6-19.8-46.6-45.3,0-26.6,24.4-46.2,63.2-46.2,20.4,0,34.2,3.5,45.7,8.3L1285.5,87a96.91,96.91,0,0,0-36.8-7.6c-12.4,0-19.5,3.9-19.5,10.2,0,7.8,9.5,10.5,29,16.6,29,9.1,42.8,22.9,42.8,45.1,0,24.6-19.7,47.2-67.4,47.2-19.7,0-39-5.2-48.6-10Z"/></svg>