<?xml version="1.0" encoding="utf-8"?>
<!-- Generator: Adobe Illustrator 26.3.1, SVG Export Plug-In . SVG Version: 6.00 Build 0)  -->
<svg version="1.1" id="图层_1" xmlns="http://www.w3.org/2000/svg" xmlns:xlink="http://www.w3.org/1999/xlink" x="0px" y="0px"
	 viewBox="0 0 1382 295" style="enable-background:new 0 0 1382 295;" xml:space="preserve">
<style type="text/css">
	.st0{fill:#242424;}
	.st1{fill:#F97106;}
	.st2{fill:#FFFFFF;}
</style>
<rect class="st0" width="1382" height="295"/>
<g>
	<polygon class="st1" points="40.5,32 146.8,239.5 148.4,242.2 150.1,245 152.2,247.7 153.3,248.8 155,250.4 157.7,252.6 
		161.6,255.4 165.9,258.1 169.2,259.8 173.6,261.4 178,262.5 181.3,263 182.4,263 225.3,263 225.3,248.7 120.7,32 	"/>
	<polygon class="st2" points="152.1,32 176.9,83.4 230.2,83.4 230.2,263 292.4,263 292.4,83.4 345.7,83.4 370.5,32 	"/>
	<path class="st1" d="M472.9,227.9L421.5,81.1h45.1l17.8,56.6c5.7,17.1,10.4,34.6,14.2,52.3h0.4c4.1-18.3,9.2-35.5,14.2-51.2
		l18.5-57.7H575l-52.9,146.8H472.9z"/>
	<path class="st1" d="M609.9,192.2l-9.4,35.7h-43.3l46.4-146.8h56.2l49.4,146.8h-45.8l-10.9-35.7H609.9z M646.2,162.2l-7.8-25.9
		c-2.6-8.3-5.7-18.9-8.3-27.4h-0.4c-2.4,8.5-4.6,19.2-7,27.6l-7,25.7L646.2,162.2z"/>
	<path class="st1" d="M725.6,81.1h41.2v112.4h63.3v34.4H725.6V81.1z"/>
	<path class="st1" d="M860.4,114.7H819V81.1h124.7v33.5h-42.2v113.2h-41.1V114.7z"/>
	<path class="st1" d="M1062.4,169.7H1003v25h66.4v33.1H962V81.1h104.1v33.1H1003v22.4h59.4L1062.4,169.7z"/>
	<path class="st1" d="M1211.3,223.5c-6.1,3-21.8,7-41.9,7c-59.6,0-86.2-34.2-86.2-73.6c0-50.9,40.2-78.4,88.4-78.4
		c19,0,34.9,3.5,42.1,7.4l-8.5,31.8c-10.2-4.1-21.1-6.2-32.1-6.1c-24.7,0-46.5,13.3-46.5,42.5c0,25.3,17.2,42.9,47.6,42.9
		c11.3,0,23.8-2.2,30.8-5L1211.3,223.5z"/>
	<path class="st1" d="M1234.2,186.9c10,4.8,26,10.2,43,10.2c14,0,21.1-4.4,21.1-11.8c0-6.3-6.9-10.5-25.1-15.5
		c-25.5-7-46.6-19.8-46.6-45.3c0-26.6,24.4-46.2,63.2-46.2c20.4,0,34.2,3.5,45.7,8.3L1326,119c-11.6-4.9-24.2-7.5-36.8-7.6
		c-12.4,0-19.5,3.9-19.5,10.2c0,7.8,9.5,10.5,29,16.6c29,9.1,42.8,22.9,42.8,45.1c0,24.6-19.7,47.2-67.4,47.2
		c-19.7,0-39-5.2-48.6-10L1234.2,186.9z"/>
</g>
</svg>
